<svg xmlns="http://www.w3.org/2000/svg" width="1600" height="520" viewBox="0 0 1600 520" role="img" aria-label="CKF Manutenção">
<g transform="translate(70 80) scale(1.02)"><path fill="#0C0C0D" d="M92 45h126l18 36H116L54 180l62 99 35-35-39-63 42-67h102l-21-69H92z"/>
<path fill="#0C0C0D" d="M205 286h100l50-86-32-18-40 69H166l39 35z"/>
<path fill="#F5A400" d="M238 45h56l52 90h-51l-57-90z"/>
<path fill="#0C0C0D" d="M188 133c28-15 62-10 85 12l-52 30 3 37 34 16c-20 32-62 45-98 28-10-5-19-11-27-20l-73 73-36-36 73-73c-16-37-2-82 34-104 18-11 39-15 57-12l-39 39 39 10z"/></g>
<text x="500" y="235" fill="#0C0C0D" font-family="Bebas Neue, Beba Sans, Archivo Black, Arial Black, sans-serif" font-size="190" font-weight="900" letter-spacing="-12">CKF</text>
<rect x="1244" y="222" width="55" height="12" fill="#F5A400"/>
<text x="510" y="335" fill="#0C0C0D" font-family="Lato, Inter, Arial, sans-serif" font-size="56" font-weight="800" letter-spacing="28">MANUTENÇÃO</text>
</svg>